<svg xmlns="http://www.w3.org/2000/svg" width="48" height="48" viewBox="0 0 48 48">
    <g fill="none" fill-rule="evenodd">
        <path stroke="#FFF" stroke-opacity=".01" d="M47.5.5v47H.5V.5z"/>
        <path fill="#000" d="M24.477 9.886c2.457 0 4.608.878 6.407 2.633 1.756 1.756 2.634 3.862 2.634 6.364 0 2.457-.878 4.608-2.634 6.407-1.492 1.493-3.247 2.326-5.266 2.59v5.178h6.92v2.283h-6.92v5.492h-2.282V35.34h-6.877v-2.283h6.877V27.88c-2.02-.264-3.775-1.097-5.267-2.59-1.755-1.799-2.633-3.95-2.633-6.407 0-2.502.878-4.608 2.633-6.364 1.756-1.755 3.906-2.633 6.408-2.633zm0 2.282c-1.843 0-3.423.658-4.74 1.975-1.36 1.317-2.019 2.897-2.019 4.74 0 1.843.658 3.467 2.019 4.784 1.317 1.316 2.897 1.974 4.74 1.974 1.843 0 3.423-.658 4.74-1.974 1.316-1.317 2.018-2.94 2.018-4.784 0-1.843-.702-3.423-2.018-4.74-1.317-1.317-2.897-1.975-4.74-1.975z"/>
    </g>
</svg>
