<svg xmlns="http://www.w3.org/2000/svg" width="48" height="48" viewBox="0 0 48 48">
    <g fill="none" fill-rule="evenodd">
        <path stroke="#FFF" stroke-opacity=".01" d="M47.5.5v47H.5V.5z"/>
        <path fill="#000" d="M35.814 13.686l-11.177.576.03 1.926 6.9.049-5.83 5.83c-1.664-1.336-3.622-1.987-5.841-1.984-2.612.002-4.833.919-6.695 2.781-1.83 1.83-2.78 4.084-2.782 6.695-.003 2.612.909 4.896 2.767 6.755 1.826 1.826 4.11 2.737 6.755 2.767 2.611-.002 4.865-.952 6.695-2.782 1.862-1.862 2.779-4.083 2.781-6.695.003-2.22-.648-4.177-1.985-5.84l5.831-5.831.08 5.685 1.926.03.545-9.962zM24.918 24.582c1.37 1.37 2.053 3.034 2.051 4.992-.002 1.96-.657 3.657-2.03 5.03-1.372 1.372-3.07 2.027-5.061 2.062-1.959.002-3.623-.682-4.992-2.052-1.37-1.37-2.054-3.033-2.052-4.992.002-2.024.69-3.69 2.062-5.062 1.373-1.372 3.038-2.06 5.03-2.03 1.958-.001 3.622.683 4.992 2.052z"/>
    </g>
</svg>
